<?xml version="1.0" encoding="UTF-8"?>
<svg xmlns="http://www.w3.org/2000/svg" viewBox="0 0 106 32" height="32" width="106">
    <style>
        text {
            font-family: Avenir, Montserrat, Corbel, 'URW Gothic', source-sans-pro, sans-serif;
            font-weight: 900;
        }
    </style>
    <defs>
        <symbol viewBox="0 0 24 24" id="ri-linkedin-fill">
            <path fill="currentColor"
                d="M6.94 5a2 2 0 1 1-4-.002a2 2 0 0 1 4 .002M7 8.48H3V21h4zm6.32 0H9.34V21h3.94v-6.57c0-3.66 4.77-4 4.77 0V21H22v-7.93c0-6.17-7.06-5.94-8.72-2.91z">
            </path>
        </symbol>
    </defs>
    <rect x="0" y="0" width="100%" height="32" rx="6" fill="#072f57" />
    <rect x="2" y="6" width="102" height="24" rx="4" fill="#0a4e93" />
    <rect x="2" y="2" width="102" height="24" rx="4" fill="#0a66c2" />
    <use href="#ri-linkedin-fill" color="white" height="18" width="18" y="6" x="6" />
    <text x="28" y="22" font-size="18" fill="white">
        LinkedIn
    </text>
</svg>