<?xml version="1.0"?>
<svg xmlns="http://www.w3.org/2000/svg" viewBox="-8 0 180 48" width="94" height="24">
    <style>
        text {
            font-family: 'Lucida Grande', 'Lucida Sans', 'Lucida Sans Regular', 'Lucida Sans Unicode', Geneva, Verdana, sans-serif;
            font-weight: 600;
        }
    </style>
    <defs>
        <linearGradient id="background" gradientTransform="rotate(90)">
            <stop offset="0%" stop-color="#0c5b86" />
            <stop offset="50%" stop-color="#0077b5" />
            <stop offset="100%" stop-color="#31a5e3" />
        </linearGradient>
        <linearGradient id="gloss" gradientTransform="rotate(90)">
            <stop offset="0%" stop-color="rgba(255, 255, 255, 0.8)" />
            <stop offset="100%" stop-color="rgba(255, 255, 255, 0.1)" />
        </linearGradient>
        <radialGradient cy="100%" id="#glow">
            <stop offset="0%" stop-color="rgba(255, 255, 255, 0.7)" />
            <stop offset="100%" stop-color="transparent" />
        </radialGradient>
        <filter id="shadow" height="104">
            <feDropShadow dx="0" dy="4" stdDeviation="4" />
        </filter>
        <symbol viewBox="0 0 32 32" id="cib-linkedin-in">
            <path fill="currentColor"
                d="M8.268 28H2.463V9.306h5.805zM5.362 6.756C3.506 6.756 2 5.218 2 3.362a3.362 3.362 0 0 1 6.724 0c0 1.856-1.506 3.394-3.362 3.394M29.994 28h-5.792v-9.1c0-2.169-.044-4.95-3.018-4.95c-3.018 0-3.481 2.356-3.481 4.794V28h-5.799V9.306h5.567v2.55h.081c.775-1.469 2.668-3.019 5.492-3.019c5.875 0 6.955 3.869 6.955 8.894V28z">
            </path>
        </symbol>
    </defs>
    <rect filter="url(#shadow)" width="165" height="38" rx="20" fill="url(#background)" stroke="rgba(12,91,134,0.8)" />
    <use href="#cib-linkedin-in" width="24" height="24" x="14" y="7" color="white" />
    <text font-size="24" x="45" y="28" fill="white">LinkedIn</text>
    <rect width="145" height="15" rx="7.5" x="10" y="1.5" fill="url(#gloss)" />
</svg>