<svg xmlns="http://www.w3.org/2000/svg" viewBox="0 0 104 32" height="32" width="104">
    <defs>
        <!-- Icon distributed under <a href="https://creativecommons.org/licenses/by-sa/3.0/">CC BY-SA</a> by <a href="https://github.com/fontello/brandico.font">Brandico</a> -->
        <symbol viewBox="0 0 1046.16 1000" id="brandico-linkedin">
            <path fill="currentColor"
                d="M237.485 1000V325.301H13.229V1000zM125.386 233.127c78.202 0 126.879-51.809 126.879-116.553C250.808 50.37 203.591-.001 126.87-.001C50.161-.001-.002 50.371-.002 116.574c0 64.747 48.665 116.553 123.924 116.553h1.457zM361.61 1000h224.256V623.215c0-20.165 1.457-40.309 7.379-54.724c16.212-40.289 53.111-82.017 115.06-82.017c81.149 0 113.613 61.872 113.613 152.572v360.949h224.242V613.129c0-207.241-110.636-303.668-258.183-303.668c-120.977 0-174.094 67.622-203.603 113.679h1.497v-97.853H361.615c2.943 63.31 0 674.699 0 674.699z">
            </path>
        </symbol>
    </defs>
    <style>
        svg {
            color-scheme: light dark;
        }

        .border {
            fill: light-dark(#0d5dac, #2275ac);
        }

        text {
            font-family: -apple-system, BlinkMacSystemFont, 'Segoe UI', Roboto, Oxygen, Ubuntu, Cantarell, 'Open Sans', 'Helvetica Neue', sans-serif;
            font-size: 14px;
            font-weight: 500;
        }
    </style>
    <rect class="border" x="0" y="0" width="104" height="32" rx="6" />
    <rect class="button" x="1" y="1" width="102" height="30" fill="#0a66c2" rx="5.6470588235294117" />
    <use href="#brandico-linkedin" x="12" y="8" width="16" height="16" color="white" />
    <text x="36" y="22" font-size="14" fill="white" textLength="56">
        LinkedIn
    </text>
</svg>