<svg xmlns="http://www.w3.org/2000/svg" width="89" height="25" viewBox="0 -0.5 89 25" shape-rendering="crispEdges">
<metadata>Made with Pixels to Svg https://codepen.io/shshaw/pen/XbxvNj</metadata>
<path stroke="#563acc" d="M2 0h14M1 1h1M84 1h3M0 2h1M86 2h2M0 3h1M87 3h1M0 4h1M87 4h1M0 5h1M87 5h1M0 6h1M87 6h1M0 7h1M87 7h1M0 8h1M87 8h1M87 9h1M87 10h1M87 11h1M87 12h1M87 13h1M87 14h1M87 15h1M86 16h2M85 17h3M81 18h1M83 18h4M1 19h1M87 19h1M1 20h87M1 21h87M1 22h87M2 23h85" />
<path stroke="#2f0c7a" d="M16 0h71M87 1h1M88 2h1M88 3h1M88 4h1M88 5h1M88 6h1M88 7h1M88 8h1M0 9h1M88 9h1M0 10h1M88 10h1M0 11h1M88 11h1M0 12h1M88 12h1M0 13h1M88 13h1M0 14h1M88 14h1M0 15h1M88 15h1M0 16h1M88 16h1M0 17h1M88 17h1M0 18h1M88 18h1M0 19h1M88 19h1M0 20h1M88 20h1M0 21h1M88 21h1M0 22h1M88 22h1M1 23h1M87 23h1M2 24h85" />
<path stroke="#858afa" d="M2 1h1M1 2h1M1 3h1M31 7h1M37 7h1M35 9h1M41 10h1M55 10h1M57 10h1M71 10h1M73 10h1M81 10h1M25 11h2M15 13h1M33 13h1M42 13h1M55 13h1M57 13h1M71 13h1M73 13h1M15 14h1M35 15h1M1 18h1M3 19h4M9 19h2M13 19h1" />
<path stroke="#797aff" d="M3 1h17M21 1h2M25 1h1M1 4h1M1 5h1M7 5h1M16 5h1M1 6h1M9 6h1M14 6h1M1 7h1M8 7h1M10 7h1M13 7h1M15 7h1M25 7h2M1 8h1M44 8h1M47 8h1M50 8h1M53 8h1M59 8h1M65 8h1M79 8h1M83 8h1M1 9h1M11 9h2M8 10h2M14 10h2M63 10h1M1 11h1M16 11h1M39 11h1M47 11h1M50 11h1M79 11h1M25 12h2M44 12h1M14 13h1M16 13h1M50 13h1M63 13h1M7 14h1M16 14h1M8 15h1M15 15h1M39 15h1M48 15h1M53 15h1M59 15h1M65 15h1M87 18h1M2 19h1M7 19h2M11 19h2M14 19h73" />
<path stroke="#6364ff" d="M20 1h1M23 1h2M26 1h58M2 2h84M2 3h85M2 4h85M2 5h5M17 5h70M2 6h5M10 6h1M13 6h1M17 6h5M24 6h4M30 6h18M50 6h16M68 6h19M2 7h5M9 7h1M11 7h2M14 7h1M17 7h5M30 7h1M38 7h10M50 7h16M68 7h19M2 8h5M8 8h2M11 8h2M14 8h2M17 8h5M30 8h1M38 8h2M45 8h2M51 8h2M60 8h2M68 8h2M75 8h2M84 8h3M2 9h5M8 9h2M14 9h2M17 9h5M30 9h1M32 9h3M38 9h1M45 9h1M52 9h1M60 9h1M68 9h1M76 9h1M84 9h3M1 10h6M17 10h5M24 10h1M27 10h1M30 10h3M38 10h1M42 10h2M45 10h1M52 10h1M56 10h1M60 10h1M64 10h1M68 10h1M72 10h1M76 10h1M80 10h1M84 10h3M2 11h5M17 11h5M24 11h1M27 11h1M30 11h2M38 11h1M43 11h4M51 11h2M55 11h3M60 11h1M63 11h3M68 11h1M71 11h3M76 11h1M80 11h2M84 11h3M1 12h6M10 12h12M24 12h1M27 12h1M30 12h1M33 12h3M38 12h3M45 12h3M50 12h3M55 12h3M60 12h1M63 12h3M68 12h1M71 12h3M76 12h1M79 12h3M84 12h3M1 13h6M11 13h3M17 13h5M24 13h4M30 13h1M34 13h2M38 13h1M40 13h2M45 13h3M51 13h2M56 13h1M60 13h1M64 13h1M68 13h1M72 13h1M76 13h1M79 13h3M84 13h3M1 14h6M17 14h5M24 14h4M30 14h1M38 14h1M45 14h3M52 14h1M60 14h1M68 14h1M76 14h1M79 14h3M84 14h3M1 15h7M16 15h6M24 15h4M30 15h2M38 15h1M44 15h4M52 15h1M60 15h2M68 15h2M75 15h2M79 15h3M84 15h3M1 16h85M1 17h84M2 18h79M82 18h1" />
<path stroke="#ffffff" d="M8 5h8M7 6h2M15 6h2M22 6h2M28 6h2M48 6h2M66 6h2M7 7h1M16 7h1M22 7h3M27 7h3M32 7h5M48 7h2M66 7h2M7 8h1M10 8h1M13 8h1M16 8h1M22 8h8M31 8h7M40 8h4M48 8h2M54 8h5M62 8h3M66 8h2M70 8h5M77 8h2M80 8h3M7 9h1M10 9h1M13 9h1M16 9h1M22 9h8M31 9h1M36 9h2M39 9h6M46 9h6M53 9h7M61 9h7M69 9h7M77 9h7M7 10h1M10 10h4M16 10h1M22 10h2M25 10h2M28 10h2M33 10h5M39 10h2M44 10h1M46 10h6M53 10h2M58 10h2M61 10h2M65 10h3M69 10h2M74 10h2M77 10h3M82 10h2M7 11h9M22 11h2M28 11h2M32 11h6M40 11h3M48 11h2M53 11h2M58 11h2M61 11h2M66 11h2M69 11h2M74 11h2M77 11h2M82 11h2M7 12h2M22 12h2M28 12h2M31 12h2M36 12h2M41 12h3M48 12h2M53 12h2M58 12h2M61 12h2M66 12h2M69 12h2M74 12h2M77 12h2M82 12h2M7 13h3M22 13h2M28 13h2M31 13h2M36 13h2M39 13h1M43 13h2M48 13h2M53 13h2M58 13h2M61 13h2M65 13h3M69 13h2M74 13h2M77 13h2M82 13h2M8 14h6M22 14h2M28 14h2M31 14h7M39 14h6M48 14h4M53 14h7M61 14h7M69 14h7M77 14h2M82 14h2M9 15h1M22 15h2M28 15h2M32 15h3M36 15h2M40 15h4M49 15h3M54 15h5M62 15h3M66 15h2M70 15h5M77 15h2M82 15h2" />
<path stroke="#e5e6ff" d="M11 6h2M9 12h1M10 13h1M14 14h1M10 15h5" />
</svg>