<?xml version="1.0" encoding="UTF-8"?>
<svg xmlns="http://www.w3.org/2000/svg" viewBox="0 0 120 32" height="32" width="120">
    <style>
        text {
            font-family: Avenir, Montserrat, Corbel, 'URW Gothic', source-sans-pro, sans-serif;
            font-weight: 900;
        }
    </style>
    <defs>
        <symbol viewBox="0 0 24 24" id="ri-mastodon-fill">
            <path fill="currentColor"
                d="M21.26 13.99c-.275 1.41-2.457 2.955-4.963 3.254c-1.306.156-2.593.3-3.965.236c-2.244-.103-4.014-.535-4.014-.535c0 .218.014.426.04.62c.292 2.215 2.196 2.347 4 2.41c1.82.061 3.44-.45 3.44-.45l.075 1.646s-1.273.684-3.54.81c-1.252.068-2.805-.032-4.613-.51c-3.923-1.039-4.598-5.22-4.701-9.464c-.032-1.26-.012-2.447-.012-3.44c0-4.34 2.843-5.611 2.843-5.611C7.283 2.298 9.742 2.021 12.3 2h.062c2.557.02 5.018.298 6.451.956c0 0 2.843 1.272 2.843 5.61c0 0 .036 3.201-.396 5.424m-2.957-5.087c0-1.074-.274-1.927-.823-2.558c-.566-.631-1.307-.955-2.228-.955c-1.065 0-1.872.41-2.405 1.228l-.518.87l-.519-.87C11.277 5.8 10.47 5.39 9.406 5.39c-.921 0-1.663.324-2.229.955c-.549.631-.822 1.484-.822 2.558v5.253h2.081V9.057c0-1.075.452-1.62 1.357-1.62c1 0 1.501.647 1.501 1.927v2.79h2.07v-2.79c0-1.28.5-1.927 1.5-1.927c.905 0 1.358.545 1.358 1.62v5.1h2.08z">
            </path>
        </symbol>
    </defs>
    <rect x="0" y="0" width="100%" height="100%" rx="6" fill="#2F0C7A" />
    <rect x="2" y="6" width="116" height="24" rx="4" fill="#563ACC" />
    <rect x="2" y="2" width="116" height="24" rx="4" fill="#6364FF" />
    <use href="#ri-mastodon-fill" color="white" height="18" width="18" x="4" y="6" />
    <text x="26" y="22" font-size="18" fill="white">
        Mastodon
    </text>
</svg>