<svg xmlns="http://www.w3.org/2000/svg" viewBox="0 0 110 32" height="32" width="110">
    <defs>
        <!-- Octicon 16px Globe is <a href="https://raw.githubusercontent.com/primer/octicons/refs/heads/main/LICENSE">licensed by GitHub Inc. under the MIT License</a>  -->
        <symbol viewBox="0 0 16 16" id="octicon-globe-16">
            <path fill="currentColor"
                d="M8 0a8 8 0 1 1 0 16A8 8 0 0 1 8 0M5.78 8.75a9.64 9.64 0 0 0 1.363 4.177q.383.64.857 1.215c.245-.296.551-.705.857-1.215A9.64 9.64 0 0 0 10.22 8.75Zm4.44-1.5a9.64 9.64 0 0 0-1.363-4.177c-.307-.51-.612-.919-.857-1.215a10 10 0 0 0-.857 1.215A9.64 9.64 0 0 0 5.78 7.25Zm-5.944 1.5H1.543a6.51 6.51 0 0 0 4.666 5.5q-.184-.271-.352-.552c-.715-1.192-1.437-2.874-1.581-4.948m-2.733-1.5h2.733c.144-2.074.866-3.756 1.58-4.948q.18-.295.353-.552a6.51 6.51 0 0 0-4.666 5.5m10.181 1.5c-.144 2.074-.866 3.756-1.58 4.948q-.18.296-.353.552a6.51 6.51 0 0 0 4.666-5.5Zm2.733-1.5a6.51 6.51 0 0 0-4.666-5.5q.184.272.353.552c.714 1.192 1.436 2.874 1.58 4.948Z">
            </path>
        </symbol>
    </defs>
    <style>
        svg {
            color-scheme: light dark;
        }

        .border {
            fill: light-dark(#d1d9e0, #3d444d);
        }

        .button {
            fill: light-dark(#eff2f5, #262c36);
        }

        .icon {
            color: light-dark(#25292e, #f0f6fc);
        }

        text {
            font-family: -apple-system, BlinkMacSystemFont, 'Segoe UI', Roboto, Oxygen, Ubuntu, Cantarell, 'Open Sans', 'Helvetica Neue', sans-serif;
            font-size: 14px;
            font-weight: 500;
            fill: light-dark(#25292e, #f0f6fc);
        }
    </style>
    <rect class="border" x="0" y="0" width="102" height="32" rx="6" />
    <rect class="button" x="1" y="1" width="100" height="30" rx="5.6470588235294117" />
    <use class="icon" href="#octicon-globe-16" x="12" y="8" height="16" width="16" />
    <text x="36" y="22" textLength="54" lengthAdjust="spacingAndGlyphs">Website</text>
</svg>