<svg xmlns="http://www.w3.org/2000/svg" width="78" height="24" viewBox="0 -0.5 78 24" shape-rendering="crispEdges">
<metadata>Made with Pixels to Svg https://codepen.io/shshaw/pen/XbxvNj</metadata>
<path stroke="#6d6d6d" d="M2 0h74M1 1h1M76 1h1M0 2h1M77 2h1M0 3h1M77 3h1M0 4h1M8 4h5M77 4h1M0 5h1M7 5h1M9 5h3M13 5h1M77 5h1M0 6h1M6 6h1M8 6h1M10 6h1M12 6h1M14 6h1M77 6h1M0 7h1M5 7h1M7 7h1M10 7h1M13 7h1M15 7h1M56 7h1M77 7h1M0 8h1M5 8h1M7 8h1M10 8h1M13 8h1M15 8h1M31 8h1M34 8h1M67 8h1M70 8h1M77 8h1M0 9h1M5 9h1M7 9h1M10 9h1M13 9h1M15 9h1M48 9h1M77 9h1M0 10h1M5 10h1M7 10h1M10 10h1M13 10h1M15 10h1M77 10h1M0 11h1M5 11h1M7 11h1M10 11h1M13 11h1M15 11h1M77 11h1M0 12h1M6 12h1M8 12h1M10 12h1M12 12h1M14 12h1M31 12h1M49 12h1M67 12h1M77 12h1M0 13h1M7 13h1M9 13h3M13 13h1M53 13h1M58 13h1M77 13h1M0 14h1M8 14h5M60 14h1M77 14h1M0 15h1M77 15h1M0 16h1M77 16h1M0 17h1M77 17h1M0 18h1M77 18h1M0 19h1M77 19h1M0 20h1M77 20h1M0 21h1M77 21h1M1 22h1M76 22h1M2 23h74" />
<path stroke="#ffffff" d="M2 1h1M1 2h1M1 3h1M1 17h1M3 18h3M8 18h2M12 18h1" />
<path stroke="#dbdbdb" d="M3 1h16M22 1h2M26 1h1M1 4h1M1 5h1M1 6h1M1 7h1M1 8h1M1 10h1M76 17h1M2 18h1M6 18h2M10 18h2M13 18h63" />
<path stroke="#aeaeae" d="M19 1h3M24 1h2M27 1h46M2 2h73M2 3h74M2 4h6M13 4h25M40 4h15M57 4h19M2 5h5M8 5h1M12 5h1M14 5h6M22 5h4M28 5h10M40 5h15M57 5h3M62 5h14M2 6h4M9 6h1M11 6h1M15 6h5M22 6h4M28 6h3M35 6h3M40 6h20M62 6h5M71 6h5M2 7h3M6 7h1M14 7h1M16 7h4M22 7h4M28 7h2M36 7h2M45 7h2M52 7h2M57 7h2M63 7h3M72 7h4M2 8h3M6 8h1M8 8h2M11 8h2M14 8h1M16 8h4M22 8h1M25 8h1M28 8h1M32 8h2M37 8h1M45 8h1M52 8h2M57 8h1M64 8h1M68 8h2M73 8h3M1 9h4M16 9h4M22 9h1M25 9h1M28 9h1M32 9h2M37 9h1M41 9h1M45 9h1M49 9h2M52 9h3M57 9h1M64 9h1M68 9h2M73 9h3M2 10h3M6 10h1M8 10h2M11 10h2M14 10h1M16 10h4M28 10h1M37 10h1M40 10h3M45 10h1M50 10h5M57 10h2M63 10h2M73 10h3M1 11h4M6 11h1M14 11h1M16 11h4M28 11h1M32 11h6M40 11h3M45 11h3M52 11h3M57 11h3M62 11h3M68 11h8M1 12h5M9 12h1M11 12h1M15 12h5M28 12h1M32 12h2M37 12h1M41 12h1M45 12h1M47 12h2M52 12h2M57 12h3M63 12h2M68 12h2M73 12h3M1 13h6M8 13h1M12 13h1M14 13h6M23 13h2M28 13h1M37 13h1M45 13h1M52 13h1M59 13h1M64 13h1M73 13h3M1 14h7M13 14h7M22 14h4M28 14h2M36 14h2M45 14h1M51 14h2M59 14h1M64 14h2M72 14h4M1 15h74M1 16h73M2 17h67M70 17h2" />
<path stroke="#8e8e8e" d="M73 1h3M75 2h2M76 3h1M76 4h1M76 5h1M7 6h1M13 6h1M76 6h1M8 7h2M11 7h2M40 7h1M44 7h1M51 7h1M59 7h1M62 7h1M76 7h1M23 8h2M76 8h1M6 9h1M8 9h2M11 9h2M14 9h1M31 9h1M34 9h1M42 9h1M67 9h1M70 9h1M76 9h1M46 10h1M59 10h1M62 10h1M76 10h1M8 11h2M11 11h2M31 11h1M51 11h1M67 11h1M76 11h1M7 12h1M13 12h1M23 12h2M34 12h1M42 12h1M54 12h1M62 12h1M70 12h1M76 12h1M76 13h1M30 14h1M35 14h1M40 14h1M44 14h1M46 14h1M66 14h1M71 14h1M76 14h1M75 15h2M74 16h3M69 17h1M72 17h4M1 18h1M76 18h1M1 19h76M1 20h76M1 21h76M2 22h74" />
<path stroke="#000000" d="M38 4h2M55 4h2M20 5h2M26 5h2M38 5h2M55 5h2M60 5h2M20 6h2M26 6h2M31 6h4M38 6h2M60 6h2M67 6h4M20 7h2M26 7h2M30 7h6M38 7h2M41 7h3M47 7h4M54 7h2M60 7h2M66 7h6M20 8h2M26 8h2M29 8h2M35 8h2M38 8h7M46 8h6M54 8h3M58 8h6M65 8h2M71 8h2M20 9h2M23 9h2M26 9h2M29 9h2M35 9h2M38 9h3M43 9h2M46 9h2M51 9h1M55 9h2M58 9h6M65 9h2M71 9h2M20 10h8M29 10h8M38 10h2M43 10h2M47 10h3M55 10h2M60 10h2M65 10h8M20 11h8M29 11h2M38 11h2M43 11h2M48 11h3M55 11h2M60 11h2M65 11h2M20 12h3M25 12h3M29 12h2M35 12h2M38 12h3M43 12h2M46 12h1M50 12h2M55 12h2M60 12h2M65 12h2M71 12h2M20 13h3M25 13h3M29 13h8M38 13h7M46 13h6M54 13h4M60 13h4M65 13h8M20 14h2M26 14h2M31 14h4M38 14h2M41 14h3M47 14h4M53 14h6M61 14h3M67 14h4" />
</svg>