<?xml version="1.0"?>
<svg xmlns="http://www.w3.org/2000/svg" viewBox="-8 0 168 48" width="88" height="24">
    <style>
        text {
            font-family: 'Lucida Grande', 'Lucida Sans', 'Lucida Sans Regular', 'Lucida Sans Unicode', Geneva, Verdana, sans-serif;
            font-weight: 600;
        }
    </style>
    <defs>
        <linearGradient id="background" gradientTransform="rotate(90)">
            <stop offset="50%" stop-color="#dedede" />
            <stop offset="100%" stop-color="#ffffff" />
        </linearGradient>
        <linearGradient id="gloss" gradientTransform="rotate(90)">
            <stop offset="0%" stop-color="#fffd" />
            <stop offset="100%" stop-color="#fff8" />
        </linearGradient>
        <filter id="shadow" height="104">
            <feDropShadow dx="0" dy="4" stdDeviation="4" />
        </filter>
        <symbol viewBox="0 0 16 16" id="pajamas-earth">
            <path fill="currentColor" fill-rule="evenodd"
                d="M8 14.5c.23 0 .843-.226 1.487-1.514c.306-.612.563-1.37.742-2.236H5.771c.179.866.436 1.624.742 2.236C7.157 14.274 7.77 14.5 8 14.5M5.554 9.25a14.4 14.4 0 0 1 0-2.5h4.892a14.5 14.5 0 0 1 0 2.5zm6.203 1.5c-.224 1.224-.593 2.308-1.066 3.168a6.53 6.53 0 0 0 3.2-3.168zm2.623-1.5h-2.43a16 16 0 0 0 0-2.5h2.429a6.5 6.5 0 0 1 0 2.5Zm-10.331 0H1.62a6.5 6.5 0 0 1 0-2.5h2.43a16 16 0 0 0 0 2.5Zm-1.94 1.5h2.134c.224 1.224.593 2.308 1.066 3.168a6.53 6.53 0 0 1-3.2-3.168m3.662-5.5h4.458c-.179-.866-.436-1.624-.742-2.236C8.843 1.726 8.23 1.5 8 1.5s-.843.226-1.487 1.514c-.306.612-.563 1.37-.742 2.236m5.986 0h2.134a6.53 6.53 0 0 0-3.2-3.168c.473.86.842 1.944 1.066 3.168M5.31 2.082c-.473.86-.842 1.944-1.066 3.168H2.109a6.53 6.53 0 0 1 3.2-3.168ZM8 0a8 8 0 1 1 0 16A8 8 0 0 1 8 0"
                clip-rule="evenodd"></path>
        </symbol>
    </defs>
    <rect filter="url(#shadow)" width="155" height="38" rx="20" fill="url(#background)"
        stroke="rgba(128, 128, 128, 0.5)" />
    <use href="#pajamas-earth" height="24" width="24" x="13" y="6" color="black" />
    <text font-size="24" x="44" y="28" fill="black">Website</text>
    <rect width="135" height="15" x="10" y="1.5" rx="7.5" fill="url(#gloss)" />
</svg>